<?xml version="1.0" encoding="UTF-8"?><svg xmlns="http://www.w3.org/2000/svg" xmlns:xlink="http://www.w3.org/1999/xlink" viewBox="0 0 500 500"><defs><style>.l{fill:url(#e);}.m{fill:url(#g);}.n{fill:url(#f);}.o{fill:url(#i);}.p{fill:url(#h);}.q{fill:url(#k);}.r{fill:url(#j);}.s{fill:url(#c);}.t{fill:#f4f4f4;}.u{fill:url(#d);opacity:.54;}</style><radialGradient id="c" cx="361.26" cy="188.92" fx="361.26" fy="188.92" r="354.87" gradientTransform="translate(581.67 115.74) rotate(-162.65) scale(1 -1)" gradientUnits="userSpaceOnUse"><stop offset="0" stop-color="#57b3ff"/><stop offset=".03" stop-color="#57adfb"/><stop offset=".35" stop-color="#607eda"/><stop offset=".62" stop-color="#665dc3"/><stop offset=".85" stop-color="#6948b5"/><stop offset="1" stop-color="#6b41b0"/></radialGradient><radialGradient id="d" cx="312.59" cy="224.79" fx="312.59" fy="224.79" r="255.85" gradientTransform="translate(561.5 180.93) rotate(-162.65) scale(1 -.82)" gradientUnits="userSpaceOnUse"><stop offset="0" stop-color="#57b3ff"/><stop offset=".12" stop-color="#5795ee"/><stop offset=".31" stop-color="#576dd8"/><stop offset=".5" stop-color="#584dc6"/><stop offset=".68" stop-color="#5837ba"/><stop offset=".85" stop-color="#5829b2"/><stop offset="1" stop-color="#5925b0"/></radialGradient><linearGradient id="e" x1="255.76" y1="283.38" x2="316.26" y2="283.38" gradientTransform="matrix(1, 0, 0, 1, 0, 0)" gradientUnits="userSpaceOnUse"><stop offset=".18" stop-color="#6a46b4"/><stop offset="1" stop-color="#6b41b0"/></linearGradient><linearGradient id="f" x1="397.3" y1="271.91" x2="430.66" y2="271.91" gradientTransform="matrix(1, 0, 0, 1, 0, 0)" gradientUnits="userSpaceOnUse"><stop offset=".18" stop-color="#6a46b4"/><stop offset="1" stop-color="#6b41b0"/></linearGradient><radialGradient id="g" cx="380.29" cy="387.43" fx="380.29" fy="387.43" r="83.64" gradientTransform="matrix(1, 0, 0, 1, 0, 0)" gradientUnits="userSpaceOnUse"><stop offset="0" stop-color="#57b3ff"/><stop offset=".26" stop-color="#549bf1"/><stop offset=".79" stop-color="#4d60d0"/><stop offset="1" stop-color="#4a48c2"/></radialGradient><linearGradient id="h" x1="269.92" y1="436.02" x2="421.45" y2="436.02" gradientTransform="matrix(1, 0, 0, 1, 0, 0)" gradientUnits="userSpaceOnUse"><stop offset="0" stop-color="#57b3ff"/><stop offset=".03" stop-color="#57adfb"/><stop offset=".35" stop-color="#607eda"/><stop offset=".62" stop-color="#665dc3"/><stop offset=".85" stop-color="#6948b5"/><stop offset="1" stop-color="#6b41b0"/></linearGradient><radialGradient id="i" cx="363.61" cy="208.8" fx="363.61" fy="208.8" r="289.72" gradientTransform="matrix(1, 0, 0, 1, 0, 0)" gradientUnits="userSpaceOnUse"><stop offset="0" stop-color="#57b3ff"/><stop offset=".18" stop-color="#56aefc"/><stop offset=".38" stop-color="#54a1f4"/><stop offset=".59" stop-color="#528be8"/><stop offset=".8" stop-color="#4e6dd7"/><stop offset="1" stop-color="#4a48c2"/></radialGradient><radialGradient id="j" cx="385.01" cy="107.76" fx="385.01" fy="107.76" r="91.54" gradientTransform="translate(0 -48.05) scale(1 1.45)" gradientUnits="userSpaceOnUse"><stop offset="0" stop-color="#6b41b0"/><stop offset=".32" stop-color="#6561c6"/><stop offset="1" stop-color="#57b3ff"/></radialGradient><radialGradient id="k" cx="227.68" cy="149.64" fx="227.68" fy="149.64" r="85.81" gradientTransform="translate(0 -78.96) scale(1 1.53)" gradientUnits="userSpaceOnUse"><stop offset="0" stop-color="#6b41b0"/><stop offset=".15" stop-color="#6948b5"/><stop offset=".38" stop-color="#665dc3"/><stop offset=".65" stop-color="#607eda"/><stop offset=".97" stop-color="#57adfb"/><stop offset="1" stop-color="#57b3ff"/></radialGradient></defs><g id="a"/><g id="b"><g><g><path class="s" d="M405.1,194.03s-36.74,211.84-43.38,224.61c-40.09,77.12-140.16,76.56-175.44,71.38,37.82-16.14,62.82-38.3,62.82-38.3-53.29,37.03-119.87,36.48-149.96,37.66,33.89-9.78,46.94-35.78,46.94-35.78C68.64,504.75,0,489.17,0,489.17c38.22-26.95,55.94-115.34,55.94-115.34-26.36,20.66-38.04,65.54-38.04,65.54-5.22-62.78,30.44-120.78,43.71-141-23.82,9.48-39.66,35.15-39.66,35.15,29.54-108.39,108.34-205.37,221.27-259.78,61.5-29.63,161.87,120.29,161.87,120.29Z"/><path class="u" d="M367.71,275.39s-18.24,126.33-22.48,133.78c-25.59,45-96.61,40.97-121.83,36.54,26.24-8.33,43.15-20.77,43.15-20.77-36.44,20.35-83.7,17.56-105,17.16,23.68-4.65,31.98-19.83,31.98-19.83-53.05,27.97-102.32,16.05-102.32,16.05,26.12-14.83,35.43-67.46,35.43-67.46-17.94,11.48-24.57,38.1-24.57,38.1-6.02-38.03,17.14-71.67,25.8-83.37-16.55,4.83-26.84,19.72-26.84,19.72,16.95-64.24,69.27-119.78,147.38-148.41,42.54-15.59,119.28,78.48,119.28,78.48Z"/><path class="t" d="M342.66,203.23s-129.27-23.12-145.81,18c-16.54,41.12-4.41,92.66,13.78,113.13,18.19,20.47,42.07,28.8,40.93,29.94s-9.85,21.22-9.85,21.22c0,0,37.81,40.65,49.41,48.94,11.61,8.29,48.43,40.51,76.35,41.45,27.92,.95,36.64-8.34,36.64-8.34,0,0,10.44,2.13,17.35-3.86,6.91-5.99,12.59-23.62,13.54-38.02,.95-14.4-10.8-49.65-12.32-57.8-1.52-8.15-9.93-42.07,12.37-88.12,22.31-46.05,38.22-65.95,12.07-86.98-26.15-21.03-104.46,10.42-104.46,10.42Z"/><g><path class="l" d="M316.26,303.01s-7.22-24.4-13.94-34.36c-6.72-9.96-26.14-1.74-46.56-1.24,11.2,3.49,8.71,4.73,18.17,12.95,9.46,8.22,19.68,10.78,29.38,11.7,9.7,.92,12.95,10.95,12.95,10.95Z"/><path class="n" d="M397.3,290.49s.58-20.84,3.27-29.86c2.69-9.02,16.72-4.95,30.09-7.3-6.7,4.35-4.87,5.03-9.64,13-4.77,7.97-10.99,11.44-17.14,13.5-6.15,2.06-6.57,10.67-6.57,10.67Z"/><path class="m" d="M418.46,403.47c-10.08-1.49-13.44,5.98-30.25,5.6-6.51-.6-10.99,1.06-14.08,3.81-6.22-8.68-22.19-33.63-31.27-71.75-2.53,36.65,19.89,69.03,26.86,78.12-3.2,7.63-2.04,16.71-2.04,16.71,4.11,16.93,25.02,24.65,38.22,22.41s20.42-5.73,24.4-19.92c3.98-14.19-1.74-33.49-11.83-34.98Z"/><path class="p" d="M421.45,463.72s-10.46,5.73-17.05,1.87c0,0-21.41,11.95-44.32,8.46-22.9-3.49-41.33-24.9-57.26-52.28s-25.39-32.86-31.87-27.39c-6.47,5.48,18.93,32.31,36.85,45.81,17.92,13.5,19.67,19.42,37.34,30.37,16.55,10.26,47.5,14.18,57.51-1.5,2.1,1.17,8.61,3.43,18.8-5.35Z"/><path class="o" d="M436.94,331.64c15.87-21.44,49.41-14.9,62.49,5.75-3.03-51.16-44.72-57.99-44.72-57.99,19.33-20.09,45.3-7.5,45.3-7.5,0,0-12.83-28.68-33.86-35.87,4.23-15.22,5.63-52.23-5.35-73.01,5.02-33.33,19.29-115.28,11.07-154.47-56.03-6.16-94.28,39.95-106,56.35-29.66-6.86-71.25-6.73-110.83,3.08-5.33-6.45-11.06-13.75-16.95-21.83C212.69,11.3,206.72,1.84,180.83,15.78c-25.89,13.94-42.32,64.73-33.86,120,.33,2.16,.66,4.22,1,6.23-36.51,62.56-24.4,114.52-24.4,114.52,0,0-39.86,15.38-51.76,67.78,0,0,32.83-21.54,111.5-11.46,0,0-30.87,9.83-53.78,51.66,26.89-3.98,52.78-3.98,108.55,11.97,0,0-28.88,2.97-42.82,26.79,50.66-8.39,95.85,31.19,95.85,31.19,0,0-26.14-27.26-39.21-54.52,16.43-4.11,34.11-21.66,34.11-21.66,0,0-7.59,4.48-56.89-19.42,0,0,32.12,3.73,56.89-3.73-26.76-1.49-79.3-31.37-77.8-66.47,1.49-35.1,26.89-49.54,68.71-47.55,41.83,1.99,63.49,62.28,51.54,91.74,23.9-38.96,50.42-37.84,64.98-9.83,0,0-8.96-25.02-13.44-43.32-4.48-18.3,4.48-54.15,20.17-56.76,15.28-2.55,43.23,10.94,47.85,34.02-8.14,21.59-18.97,42.55-26.56,57.35-14.32,27.88-4.61,70.21,0,87.14,4.61,16.93,16.31,35.35,10.11,62.24,8.75-16.93,7.69-30.87,0-59.25l-.03-.12c-2.62-9.66,.94-19.37,7.77-26.68,6.5-6.96,18.92-14.79,44.78-3.36-18.92-26.89-47.14-22.62-47.14-22.62Z"/><g><path class="r" d="M435.37,135.01s-8.72-13.28-37.9-35.63c-18.44-14.12,28.83-71.15,68.67-76.63-4.48,72.7-7.47,105.56-12.45,116.02-4.98,10.46-13.99,.41-18.32-3.76Z"/><path class="q" d="M238.67,108.1s.91-19.95-16.02-47.5c-19.91-32.41-38.34-43.32-52.28-16.93-13.94,26.39-12.45,90.13,0,114.03,12.45,23.9,19.87,16.77,28.03-2.6,12.13-28.8,32.89-36.97,40.27-47Z"/></g></g></g><path class="t" d="M295.46,283.3c6.12,0,6.13-9.5,0-9.5s-6.13,9.5,0,9.5h0Z"/><path class="t" d="M409.39,271.91c6.12,0,6.13-9.5,0-9.5s-6.13,9.5,0,9.5h0Z"/></g></g></svg>