<?xml version="1.0" encoding="UTF-8"?><svg id="a" xmlns="http://www.w3.org/2000/svg" viewBox="0 0 486.15 258.93"><defs><style>.b{fill:#fff;}</style></defs><path class="b" d="M0,254.45c2.72-1.02,5.39-1.01,7.96-1.13,11.98-.56,23.96-.89,35.95-1.21,19.9-.54,39.8-.75,59.7-.99,6.57-.08,13.15-.33,19.73-.33,1.89,0,2.57-.77,2.81-2.63,1.71-13.21,3.56-26.4,5.29-39.61,.38-2.9,1.66-4.87,4.06-6.72,13.13-10.11,19.78-23.29,18.17-40.14-.19-1.98-.02-4-.87-6.2-1.37,3.81-2.05,7.58-3.59,11.06-7.36,16.6-19.96,27.1-37.27,32.18-2.03,.6-2.96,.41-2.51-2.07,.3-1.67,.32-3.45-.21-5.15-1.1-.13-1.34,.75-1.74,1.28-11.81,15.74-27.82,22.68-47.21,22.55-.72,0-1.73,.29-2.08-.44-.49-1.02,.72-1.31,1.25-1.86,8.51-8.74,15.27-18.68,20.32-29.78,.23-.5,.73-1.07,.19-1.59-.49-.48-1.1,.02-1.66,.04-1.12,.06-2.45,1.39-3.22,.39-.68-.89,.55-2.13,1.01-3.16,7.13-15.76,18.16-27.93,33.3-36.4,7.37-4.12,15.01-7.63,22.82-10.75,11.08-4.43,20.91-11.01,31-17.16,10.1-6.17,20.61-11.19,32.56-12.7,7.77-.98,15.42-.3,23.15,.49,14.58,1.5,29.12,1.75,43.22-3.29,1.49-.53,2.91-1.23,4.36-1.86,1.68-.73,2.19-1.42,.17-2.52-1.9-1.03-3.68-2.3-5.13-3.94-.51-.58-1.41-1.21-.93-2.12,.4-.77,1.36-.46,2.07-.44,4.52,.16,8.79-.67,12.64-3.16,2.45-1.59,2.47-1.79,.27-3.65-1.16-.98-2.07-2.17-2.82-3.47-.19-.33-.32-.83-.21-1.15,.16-.47,.67-.3,1.08-.25,12.67,1.37,21.51-6.25,22.35-19.52,.71-11.1,5.38-20.32,12.82-28.3,1.98-2.13,4.15-4.1,6.33-6.03,.98-.86,1.36-1.81,1.36-3.05,.01-5.95,1.19-11.75,2.43-17.54,.55-2.54,1.25-2.77,3.24-1,4.25,3.79,7.81,8.21,11.13,12.8,1.23,1.7,2.52,2.2,4.63,2.01,5.57-.52,11.16-.07,16.69,.61,7.32,.89,11.11,6.28,14.39,12.18-1.65-1.41-3.25-2.9-4.97-4.23-2.99-2.29-4.28-2.27-7.31-.03-.97,.72-2.02,1.07-3.2,1.28-4.2,.74-5.93,4.12-4.19,8.02,1.62,3.63,1.62,3.61-2.09,4.6-1.2,.32-2.41,.69-3.56,1.16-5.94,2.48-8.38,7.62-6.65,13.82,1.52,5.47,4.35,10.25,7.7,14.76,.69,.93,1.38,1.85,2.53,3.38-3.01-.39-5.4-.75-7.79-.99-5.09-.53-10.15-.53-15.06,1.22-1.89,.68-3.69,1.53-5.13,3-1.76,1.79-1.73,2.09,.57,3.01,6.31,2.51,12.27,5.61,17.4,10.15,1.27,1.13,2.76,2.1,3.54,4.42-7.03-2.79-13.84-3.91-20.94-2.26,3.77,1.79,7.62,3.31,11.09,5.58,1.46,.95,2.91,1.95,4.3,3,.55,.41,1.55,.7,1.27,1.62-.23,.76-1.14,.52-1.76,.63-4.42,.78-8.45,2.44-12.14,5.01-6.42,4.48-10.35,13.47-9.24,21.72,1.77-2.65,3.3-5.18,5.21-7.44,2.61-3.08,5.52-5.78,9.14-7.64,.44-.23,.95-.51,1.41-.21,.56,.37,.22,.92,.02,1.34-3.11,6.43-4.94,13.47-9.32,19.31-2.21,2.93-4.38,5.86-7.2,8.26-2.73,2.33-5.69,4.3-9.09,6.13,1.25,1.08,2.57,1.17,3.82,1.28,1.57,.13,3.16,.06,4.74,.12,.62,.02,1.45-.36,1.81,.39,.29,.61-.39,1.03-.72,1.48-3.63,4.93-5.87,10.45-6.79,16.48-.68,4.41-1.12,8.86-.53,13.45,1.16-.44,1.09-1.4,1.36-2.1,4.87-12.6,12.56-23.03,23.61-30.91,.61-.44,1.23-.87,1.88-1.23,.34-.19,.83-.39,1.14-.27,.6,.22,.39,.83,.3,1.3-.23,1.23-.51,2.45-.76,3.67-.23,1.13-.44,2.25-.38,3.53,11.14-10.22,19.36-22.56,26.46-35.83,.58,3.57-.54,6.92-1.3,10.96,8.19-6.95,13.92-14.51,13.83-25.16-.08-10.07-4.61-18.51-10.92-26.78,3.21,.69,5.04,2.46,7.48,3.74-.48-2.55-2-4.31-3.04-6.29-1.59-3.04-1.59-3.16,1.66-3.82,5.24-1.07,10.34-2.61,15.37-4.38,3.57-1.26,6.77-3.2,9.75-5.5,.56-.43,1.37-.98,1.01-1.81-.3-.7-1.19-.39-1.82-.41-5.99-.16-11.99-.29-17.98-.46-.78-.02-1.62,.2-2.68-.48,6.26-.56,12.21-1.14,18.16-1.6,6.81-.52,9.28-2.52,11.05-9.09,.29-1.09,.22-1.86-.73-2.62-1.68-1.33-2.7-3.17-3.3-5.2-.41-1.39-1.19-2.05-2.64-2.18-4.97-.43-9.94-.93-14.91-1.4-.98-.09-1.99,.06-2.94-.43,.17-.81,.79-.57,1.19-.58,7.5-.19,14.99,.08,22.47,.55,.66,.04,1.32,.2,1.97,.34,6.11,1.38,7.3,4.53,3.56,9.6-.76,1.03-1.3,2.13-1.64,3.33-1.28,4.61-4.42,8.31-6.17,12.73-1.08,2.73-4.15,3.98-6.71,5.38-5.98,3.25-12.47,5.12-18.99,6.87-1.83,.49-1.8,1.07-1.01,2.52,4.02,7.35,7.14,15.03,8.47,23.37,1.98,12.32-1.52,23.21-8.39,33.29-4.61,6.77-9.89,12.98-15.71,18.72-.72,.71-1.32,2.15-2.49,1.69-1.04-.41-.41-1.79-.55-2.74-.07-.48,.11-1.01-.48-1.54-3.41,2.16-6.05,5.29-9.13,7.88-6.06,5.08-11.96,10.35-17.95,15.51-.52,.45-.98,1.43-1.82,.96-.68-.38-.12-1.22-.14-1.85-.04-1.2,.74-3.03-.43-3.43-1.39-.47-2,1.43-2.68,2.47-5.35,8.14-7.4,17.44-9.07,26.8-2.67,14.94-4.17,30.01-4.23,45.21-.02,4.48,.86,5.01,5,3.04,1.13-.54,2.24-1.12,3.4-1.57,4.13-1.6,7.58-.46,9.37,3.57,1.01,2.26,2.36,2.85,4.61,2.74,5.09-.24,5.41,1.26,4.16-5.36-3.34-17.59-6.2-35.26-7.99-53.09,0-.08,0-.17-.02-.25-1.76-7.19,1.92-11.57,7.38-15.5,5.33-3.83,10.18-8.33,15.27-12.49,.67-.55,1.35-1.62,2.28-1.25,1.01,.41,.56,1.63,.54,2.49-.44,16.81-.94,33.62-1.36,50.44-.14,5.58-.07,11.17-.16,16.75-.06,3.74-.24,7.49-.36,11.23-.04,1.13,.09,2.19,1.31,2.72,1.2,.53,2.26,.29,3.22-.58,.62-.56,1.24-1.12,1.92-1.59,2.93-2.02,5.27-1.81,7.84,.7,.53,.52,1.15,1.05,1.46,1.7,1.73,3.57,4.59,4.19,8.36,4.27,14.41,.29,28.82,.14,43.23,.46,14.32,.32,28.63,.68,42.95,.99,8.48,.18,16.95,.91,25.42,1.41,.89,.05,1.79,.13,2.73,.93-1.8,.92-3.56,.89-5.22,1.01-5.98,.43-11.96,.81-17.95,1.01-8.74,.29-17.48,.44-26.22,.6-11.82,.21-23.66,.13-35.47,.62-12.33,.52-24.65,.22-36.98,.38-75.82,1.04-151.64,.47-227.46,.31-15.07-.03-30.16,.04-45.22-.47-10.08-.34-20.16-.19-30.23-.43-13.07-.31-26.14-.57-39.2-1.04-6.65-.24-13.28-.87-19.93-1.33-.71-.05-1.49,.03-2.26-.91Zm281.04-100.4c-6.61,4.05-13.69,14.51-13.03,24.72,.2,3.02-.21,3.25-3.13,2.47-7.42-1.98-14.59-4.68-21.66-7.66-6.62-2.78-13.34-5.3-20.45-6.47-9.47-1.56-16.64,1.11-17.93,11.4-.22,1.72-1.03,3.32-1.93,4.85-3.69,6.29-9.18,10.7-15.17,14.58-8.49,5.49-17.72,9.6-26.64,14.28-4.59,2.41-8.06,5.78-10.45,10.38-3.32,6.41-5.67,13.15-7.08,20.22-.3,1.49-1.54,3.42-.31,4.45,1.24,1.04,2.93-.5,4.34-1.09,3.97-1.66,6.73-1.2,9.25,2.22,1.38,1.88,2.94,2.49,5.09,2.29,7.23-.67,14.49-.28,21.73-.38,3.27-.05,3.52-.1,3.29-3.39-.75-10.98,.11-22-.85-32.96-.29-3.3,.83-5.23,3.82-6.98,11.53-6.77,21.58-14.94,24.26-29.16,.27-1.42,1.28-2.03,2.71-2.1,2.94-.15,5.8,.27,8.65,1,1.99,.51,2.66,1.58,2.57,3.58-.56,13.1-5.86,23.45-17.42,30.15-5.04,2.92-8.2,7.15-9.72,12.75-1.58,5.82-2.17,11.76-2.63,17.75-.36,4.75-.47,4.82,4.09,3.64,4.09-1.06,6.98-.05,8.36,3.34,.78,1.91,1.9,2.39,3.79,2.39,23.58-.04,47.17-.02,70.75-.03,3.28,0,3.35-.13,2.72-3.48-2.25-11.87-4.58-23.72-6.71-35.61-1.78-9.92-3.46-19.87-4.17-29.93-.65-9.1,.06-18.13,3.87-27.23Z"/><path class="b" d="M362.93,37.77c-.33,0-.68,.06-.99-.01-1.29-.29-2.91,.75-3.87-.74-.4-.63,2.7-4.55,3.69-4.76,1.44-.31,2.29,.82,3.25,1.52,1.24,.92,3.35,1.94,2.96,3.31-.41,1.48-2.64,.44-4.05,.68-.32,.06-.66,0-1,0Z"/></svg>